# AST/ASF file generated using VICON BodyLanguage
# -----------------------------------------------
:version 1.10
:name VICON
:units
  mass 1.0
  length 0.45
  angle deg
:documentation
   .ast/.asf automatically generated from VICON data using
   VICON BodyBuilder and BodyLanguage model FoxedUp or BRILLIANT.MOD
:root
   order TX TY TZ RX RY RZ
   axis XYZ
   position 0 0 0  
   orientation 0 0 0 
:bonedata
  begin
     id 1 
     name lhipjoint
     direction 0.623415 -0.642378 0.445763 
     length 2.49859 
     axis 0 0 0  XYZ
  end
  begin
     id 2 
     name lfemur
     direction 0.34202 -0.939693 0  
     length 6.69689  
     axis 0 0 20  XYZ
    dof rx ry rz
    limits (-160.0 20.0)
           (-70.0 70.0)
           (-60.0 70.0)
  end
  begin
     id 3 
     name ltibia
     direction 0.34202 -0.939693 0   
     length 7.37574   
     axis 0 0 20   XYZ
    dof rx
    limits (-10.0 170.0)
  end
  begin
     id 4 
     name lfoot
     direction 0.084323 -0.231675 0.969132   
     length 2.09111   
     axis -90 7.62852e-016 20   XYZ
    dof rx rz
    limits (-45.0 90.0)
           (-70.0 20.0)
  end
  begin
     id 5 
     name ltoes
     direction 1.5357e-011 -4.21957e-011 1   
     length 1.04989   
     axis -90 7.62852e-016 20   XYZ
    dof rx
    limits (-90.0 20.0)
  end
  begin
     id 6 
     name rhipjoint
     direction -0.605402 -0.653903 0.45376   
     length 2.45455  
     axis 0 0 0  XYZ 
  end
  begin
     id 7 
     name rfemur
     direction -0.34202 -0.939693 0   
     length 6.64523   
     axis 0 0 -20   XYZ
    dof rx ry rz
    limits (-160.0 20.0)
           (-70.0 70.0)
           (-70.0 60.0)
  end
  begin
     id 8 
     name rtibia
     direction -0.34202 -0.939693 0   
     length 7.3339   
     axis 0 0 -20   XYZ
    dof rx
    limits (-10.0 170.0)
 end
 begin
     id 9 
     name rfoot
     direction -0.120854 -0.332043 0.93549   
     length 2.23135  
     axis -90 -7.62852e-016 -20   XYZ
    dof rx rz
    limits (-45.0 90.0)
           (-20.0 70.0)
  end
  begin
     id 10 
     name rtoes
     direction -1.53563e-011 -4.21914e-011 1   
     length 1.10614   
     axis -90 -7.62852e-016 -20   XYZ
    dof rx
    limits (-90.0 20.0)
  end
  begin
     id 11 
     name lowerback
     direction 0.0319682 0.998615 -0.0417941   
     length 2.02718   
     axis 0 0 0   XYZ
    dof rx ry rz
    limits (-20.0 45.0)
           (-30.0 30.0)
           (-30.0 30.0)
  end
  begin
     id 12 
     name upperback
     direction 7.63181e-005 0.995808 0.0914691   
     length 1.97539   
     axis 0 0 0   XYZ
    dof rx ry rz
    limits (-20.0 45.0)
           (-30.0 30.0)
           (-30.0 30.0)
  end
  begin
     id 13 
     name thorax
     direction -0.016423 0.993627 0.111514   
     length 2.00349   
     axis 0 0 0   XYZ
    dof rx ry rz
    limits (-20.0 45.0)
           (-30.0 30.0)
           (-30.0 30.0)
  end
  begin
     id 14 
     name lowerneck
     direction -0.174763 0.981668 -0.0760716   
     length 1.71436   
     axis 0 0 0   XYZ
    dof rx ry rz
    limits (-20.0 45.0)
           (-30.0 30.0)
           (-30.0 30.0)
  end
  begin
     id 15 
     name upperneck
     direction 0.345458 0.934587 -0.0848868   
     length 1.72805   
     axis 0 0 0   XYZ
    dof rx ry rz
    limits (-20.0 45.0)
           (-30.0 30.0)
           (-30.0 30.0)
  end
  begin
     id 16
     name head
     direction 0.13001 0.989848 -0.0574291  
     length 1.767  
     axis 0 0 0   XYZ
    dof rx ry rz
    limits (-20.0 45.0)
           (-30.0 30.0)
           (-30.0 30.0)
  end
  begin
     id 17 
     name lclavicle
     direction 0.952951 0.290122 0.0878234  
     length 3.54654  
     axis 0 0 0   XYZ
    dof ry rz
    limits (-20.0 10.0)
           (0.0 20.0)
  end
  begin
     id 18 
     name lhumerus
     direction 1 -4.48957e-011 -4.56525e-028   
     length 5.19807   
     axis 180 -30 -90   XYZ
    dof rx ry rz
    limits (-60.0 90.0)
           (-90.0 90.0)
           (-90.0 90.0)
  end
  begin
     id 19
     name lradius
     direction 1 -4.48979e-011 -2.0317e-027   
     length 3.0937   
     axis 180 -30 -90   XYZ
    dof rx
    limits (-10.0 170.0)
  end
  begin
     id 20
     name lwrist
     direction 1 -4.48953e-011 -3.05809e-027   
     length 1.54685   
     axis 8.48514e-016 90 90   XYZ
    dof ry
    limits (-180.0 0.0)
 end
  begin
     id 21 
     name lhand
     direction 1 -4.48952e-011 -6.11639e-027   
     length 0.672632   
     axis 3.9013e-015 90 90   XYZ
    dof rx rz
    limits (-90.0 90.0)
           (-45.0 45.0)
  end
  begin
     id 22 
     name lfingers
     direction 1 -4.48925e-011 -1.22426e-026   
     length 0.542293   
     axis 7.80276e-015 90 90   XYZ
    dof rx
    limits (0.0 90.0)
  end
  begin
     id 23
     name lthumb
     direction 0.707107 -6.3486e-011 0.707107   
     length 0.778628   
     axis -90 45 5.37419e-014   XYZ
    dof rx rz
    limits (-45.0 45.0)
           (-45.0 45.0)
  end
  begin
     id 24 
     name rclavicle
     direction -0.960732 0.273675 -0.0457849   
     length 3.52079  
     axis 0 0 0   XYZ 
    dof ry rz
    limits (-10.0 20.0)
           (-20.0 0.0)
  end
  begin
     id 25 
     name rhumerus
     direction -1 -4.48976e-011 -1.63613e-027  
     length 5.45222   
     axis 180 30 90   XYZ
    dof rx ry rz
    limits (-90.0 60.0)
           (-90.0 90.0)
           (-90.0 90.0)
  end
  begin
     id 26 
     name rradius
     direction -1 -4.48957e-011 -7.00033e-028   
     length 3.01284   
     axis 180 30 90   XYZ
    dof rx
    limits (-10.0 170.0)
  end
  begin
     id 27 
     name rwrist
     direction -1 -4.48983e-011 -3.05543e-027   
     length 1.50642   
     axis 8.48514e-016 -90 -90   XYZ
    dof ry
    limits (-180.0 0.0)
  end
  begin
     id 28
     name rhand
     direction -1 -4.48984e-011 -6.11072e-027   
     length 0.622296   
     axis 3.9013e-015 -90 -90   XYZ
    dof rx rz
    limits (-90.0 90.0)
           (-45.0 45.0)
  end
  begin
     id 29
     name rfingers
     direction -1 -4.48865e-011 -1.22637e-026   
     length 0.501711   
     axis 7.80276e-015 -90 -90   XYZ
    dof rx
    limits (0.0 90.0)
  end
  begin
     id 30
     name rthumb
     direction -0.707107 -6.34932e-011 0.707107   
     length 0.72036   
     axis -90 -45 -5.37419e-014   XYZ
    dof rx rz
    limits (-45.0 45.0)
           (-45.0 45.0)
  end
:hierarchy
  begin
    root lhipjoint rhipjoint lowerback
    lhipjoint lfemur
    lfemur ltibia
    ltibia lfoot
    lfoot ltoes
    rhipjoint rfemur
    rfemur rtibia
    rtibia rfoot
    rfoot rtoes
    lowerback upperback
    upperback thorax
    thorax lowerneck lclavicle rclavicle
    lowerneck upperneck
    upperneck head
    lclavicle lhumerus
    lhumerus lradius
    lradius lwrist
    lwrist lhand lthumb
    lhand lfingers
    rclavicle rhumerus
    rhumerus rradius
    rradius rwrist
    rwrist rhand rthumb
    rhand rfingers
  end

#!OML:ASF H:\Not Pregnant\Project 1\Capture day 1\Session 1\non-pregnant.ASF
:FULLY-SPECIFIED
:DEGREES
263
root -7.28496 15.5419 14.2598 -167.227 16.9823 -172.489
lowerback 0.275861 5.60421 9.89443
upperback -8.40674 8.65631 -0.643589
thorax -7.6202 3.85618 -6.67881
lowerneck 14.453 -12.2647 -30.3124
upperneck -5.37681 -19.2355 41.4215
head 4.29373 -10.4865 20.0566
rclavicle 1.54804e-014 -4.77083e-015
rhumerus -36.9675 14.944 -105.597
rradius 52.7308
rwrist -9.55273
rhand -15.1247 -13.7736
rfingers 7.12502
rthumb 11.0445 -43.463
lclavicle 1.54804e-014 -4.77083e-015
lhumerus -65.9997 1.8994 90.1824
lradius 96.9082
lwrist 38.1721
lhand -13.2323 1.18207
lfingers 7.12502
lthumb 12.8692 30.7653
rfemur 17.8777 8.54164 27.3311
rtibia 3.35909
rfoot -2.54285 28.3017
rtoes -11.0099
lfemur -53.6562 12.2665 -19.1411
ltibia 47.7305
lfoot -3.16153 -6.20871
ltoes -15.033
264
root -7.26533 15.5365 14.0551 -167.353 16.6504 -173.014
lowerback -0.0762924 5.26057 9.36243
upperback -8.4632 8.13262 -0.776065
thorax -7.60879 3.63187 -6.485
lowerneck 14.2744 -12.1976 -30.1661
upperneck -5.03734 -19.1075 41.4555
head 4.35384 -10.3827 20.0808
rclavicle 2.90723e-014 8.74653e-015
rhumerus -37.0126 16.8977 -106.584
rradius 54.858
rwrist -8.53589
rhand -14.35 -12.3347
rfingers 7.12502
rthumb 11.7917 -41.9827
lclavicle 2.90723e-014 8.74653e-015
lhumerus -66.3474 2.11331 89.6984
lradius 95.8152
lwrist 39.1738
lhand -14.2142 3.10063
lfingers 7.12502
lthumb 11.9225 32.7411
rfemur 16.0528 8.3787 26.7575
rtibia 7.87171
rfoot -2.63513 28.6813
rtoes -11.5235
lfemur -53.1591 12.0667 -19.8538
ltibia 48.229
lfoot -4.66248 -6.03007
ltoes -14.4386
265
root -7.24559 15.5328 13.8521 -167.473 16.149 -173.666
lowerback -0.494598 4.86227 8.74911
upperback -8.5124 7.52776 -0.948842
thorax -7.56075 3.37463 -6.27978
lowerneck 14.1015 -12.1376 -30.0288
upperneck -4.7306 -18.9889 41.5055
head 4.41245 -10.2854 20.1136
rclavicle -4.26393e-014 -3.65764e-014
rhumerus -37.0953 18.594 -107.428
rradius 57.0063
rwrist -7.40148
rhand -13.5516 -10.699
rfingers 7.12502
rthumb 12.5614 -40.3014
lclavicle -4.26393e-014 -3.65764e-014
lhumerus -66.5638 2.21175 89.26
lradius 94.8042
lwrist 40.031
lhand -15.0975 4.99686
lfingers 7.12502
lthumb 11.0707 34.6849
rfemur 14.6135 8.02795 26.1132
rtibia 11.4969
rfoot -1.82831 28.9758
rtoes -11.9631
lfemur -52.7236 11.7676 -20.6965
ltibia 48.667
lfoot -5.93855 -6.08279
ltoes -13.9374
266
root -7.22448 15.5297 13.6522 -167.599 15.545 -174.382
lowerback -0.918331 4.43756 8.08367
upperback -8.55232 6.88973 -1.14646
thorax -7.49851 3.10455 -6.07104
lowerneck 13.9379 -12.0921 -29.8966
upperneck -4.45787 -18.8902 41.5677
head 4.4717 -10.2002 20.149
rclavicle -4.87022e-015 -1.07344e-014
rhumerus -37.2247 20.0156 -108.141
rradius 59.1815
rwrist -6.31078
rhand -12.7821 -8.9316
rfingers 7.12502
rthumb 13.3032 -38.487
lclavicle -4.87022e-015 -1.07344e-014
lhumerus -66.6315 2.18287 88.8418
lradius 93.7918
lwrist 40.7404
lhand -15.5441 6.55109
lfingers 7.12502
lthumb 10.6399 36.2617
rfemur 13.1783 7.82587 25.5159
rtibia 15.0282
rfoot -0.488787 28.8635
rtoes -12.2678
lfemur -52.2975 11.4349 -21.5947
ltibia 49.0653
lfoot -7.05823 -6.31171
ltoes -13.5025
267
root -7.20176 15.5276 13.4559 -167.736 14.8963 -175.094
lowerback -1.29897 4.00876 7.41499
upperback -8.58644 6.25703 -1.34778
thorax -7.44562 2.83653 -5.86931
lowerneck 13.8066 -12.0533 -29.7744
upperneck -4.21289 -18.8071 41.633
head 4.52578 -10.1271 20.1868
rclavicle -2.36057e-014 5.1684e-015
rhumerus -37.4125 21.1812 -108.745
rradius 61.3622
rwrist -5.41987
rhand -12.028 -7.18781
rfingers 7.12502
rthumb 14.03 -36.6943
lclavicle -2.36057e-014 5.1684e-015
lhumerus -66.5419 2.02795 88.4275
lradius 92.6833
lwrist 41.345
lhand -15.3461 7.44484
lfingers 7.12502
lthumb 10.831 37.1456
rfemur 11.6884 7.45645 24.9218
rtibia 18.5697
rfoot 1.44604 28.6527
rtoes -12.3124
lfemur -51.8409 11.1168 -22.4693
ltibia 49.4301
lfoot -8.07733 -6.67695
ltoes -13.0297
268
root -7.17782 15.5267 13.2646 -167.902 14.2551 -175.746
lowerback -1.56758 3.59996 6.78788
upperback -8.60959 5.66504 -1.5434
thorax -7.42908 2.58293 -5.69536
lowerneck 13.6897 -12.0346 -29.6468
upperneck -3.99017 -18.7532 41.6927
head 4.58159 -10.0704 20.2122
rclavicle 1.95803e-014 5.56597e-015
rhumerus -37.6471 22.1075 -109.254
rradius 63.5422
rwrist -4.85384
rhand -11.3135 -5.52965
rfingers 7.12502
rthumb 14.7185 -34.9871
lclavicle 1.95803e-014 5.56597e-015
lhumerus -66.2755 1.71846 88.0366
lradius 91.4129
lwrist 41.9901
lhand -14.6002 7.42239
lfingers 7.12502
lthumb 11.5503 37.0841
rfemur 10.1577 6.93912 24.3691
rtibia 22.1195
rfoot 4.01705 28.2918
rtoes -12.0151
lfemur -51.306 10.8567 -23.26
ltibia 49.7428
lfoot -9.00582 -7.11524
ltoes -12.5455
